#!OML:ASF E:\motion texture\Top Level 1\Subject 1\Session 1\male.ASF
:FULLY-SPECIFIED
:DEGREES
173
root 10.0784 17.8002 5.26322 275.793 -88.2315 -269.243
lowerback -0.983481 -1.52647 -3.55748
upperback -1.98323 -2.07336 5.22098
thorax -1.1791 -0.994563 7.44516
lowerneck -13.5493 2.45948 0.968135
upperneck 12.4215 2.34117 4.82959
head 5.94388 1.5425 1.58256
rclavicle 1.30204e-014 3.18055e-015
rhumerus -24.5156 -2.83213 -66.3028
rradius 44.6612
rwrist 4.71529
rhand -11.8527 -24.337
rfingers 7.12502
rthumb 14.1989 -53.8317
lclavicle 1.30204e-014 3.18055e-015
lhumerus 19.6434 15.4175 14.8386
lradius 49.2363
lwrist -21.4058
lhand -28.3489 18.5962
lfingers 7.12502
lthumb -1.7229 48.569
rfemur -30.871 -0.81984 12.3361
rtibia 12.0086
rfoot -5.23191 -19.6869
rtoes 0.215375
lfemur 1.15243 -2.41412 -24.6416
ltibia 15.15
lfoot -14.8085 1.53535
ltoes -7.92722
174
root 9.93957 17.7864 5.25017 278.407 -88.1245 -271.63
lowerback -1.04432 -1.52003 -3.65335
upperback -2.01264 -2.06364 5.24021
thorax -1.17329 -0.98797 7.52034
lowerneck -13.444 2.50681 0.956254
upperneck 12.1873 2.40175 4.9486
head 5.84921 1.57575 1.6222
rclavicle -1.0138e-014 3.18055e-014
rhumerus -25.0049 -3.46821 -65.8437
rradius 44.1926
rwrist 4.61263
rhand -11.8639 -24.705
rfingers 7.12502
rthumb 14.1881 -54.2005
lclavicle -1.0138e-014 3.18055e-014
lhumerus 20.3903 17.4355 14.6314
lradius 48.3102
lwrist -21.7715
lhand -28.307 18.3953
lfingers 7.12502
lthumb -1.68245 48.3684
rfemur -30.8415 0.249569 11.7082
rtibia 10.4673
rfoot -5.93357 -20.067
rtoes -1.00815
lfemur 1.3116 -2.44657 -24.6961
ltibia 15.3167
lfoot -14.993 1.38952
ltoes -8.54999
175
root 9.80052 17.7724 5.23649 280.548 -88.0351 -273.554
lowerback -1.08378 -1.50342 -3.72732
upperback -2.04328 -2.0407 5.26372
thorax -1.18347 -0.974515 7.58834
lowerneck -13.3095 2.54528 0.9369
upperneck 11.9367 2.45566 5.05551
head 5.74472 1.60371 1.65766
rclavicle 1.17283e-014 7.95139e-015
rhumerus -25.5132 -4.08328 -65.3702
rradius 43.7127
rwrist 4.51013
rhand -11.8817 -25.0149
rfingers 7.12502
rthumb 14.171 -54.5116
lclavicle 1.17283e-014 7.95139e-015
lhumerus 21.1094 19.342 14.4649
lradius 47.463
lwrist -22.1186
lhand -28.3208 18.2402
lfingers 7.12502
lthumb -1.69577 48.2132
rfemur -30.9869 0.906202 11.3015
rtibia 9.56534
rfoot -6.6084 -20.2585
rtoes -2.06867
lfemur 1.45613 -2.50067 -24.7298
ltibia 15.5302
lfoot -15.1675 1.26382
ltoes -9.21385
176
root 9.66127 17.7585 5.22243 282.258 -87.9601 -275.064
lowerback -1.09774 -1.47638 -3.78371
upperback -2.07013 -2.00433 5.29217
thorax -1.2067 -0.954205 7.65239
lowerneck -13.1632 2.574 0.904884
upperneck 11.6831 2.50126 5.15274
head 5.63752 1.62596 1.69094
rclavicle 1.15295e-014 -4.6118e-014
rhumerus -26.03 -4.68041 -64.8789
rradius 43.2204
rwrist 4.40447
rhand -11.9061 -25.324
rfingers 7.12502
rthumb 14.1475 -54.8223
lclavicle 1.15295e-014 -4.6118e-014
lhumerus 21.7919 21.1397 14.3323
lradius 46.6975
lwrist -22.4562
lhand -28.397 18.1313
lfingers 7.12502
lthumb -1.76932 48.1037
rfemur -31.2944 1.08495 11.1571
rtibia 9.31212
rfoot -7.11672 -20.1424
rtoes -2.89024
lfemur 1.59402 -2.5726 -24.7499
ltibia 15.7879
lfoot -15.3282 1.15679
ltoes -9.93825
177
root 9.52141 17.745 5.2082 283.58 -87.8938 -276.212
lowerback -1.08324 -1.44212 -3.82151
upperback -2.08311 -1.95888 5.32161
thorax -1.23362 -0.929715 7.70738
lowerneck -13.0386 2.59578 0.859328
upperneck 11.4434 2.54028 5.24359
head 5.53852 1.64431 1.72427
rclavicle -7.65321e-015 4.92986e-014
rhumerus -26.5361 -5.26382 -64.3788
rradius 42.7196
rwrist 4.30176
rhand -11.919 -25.6144
rfingers 7.12502
rthumb 14.1351 -55.1136
lclavicle -7.65321e-015 4.92986e-014
lhumerus 22.4319 22.8454 14.223
lradius 46.0131
lwrist -22.8148
lhand -28.5337 18.0822
lfingers 7.12502
lthumb -1.90138 48.0534
rfemur -31.718 0.86702 11.2444
rtibia 9.63181
rfoot -7.38115 -19.7301
rtoes -3.39659
lfemur 1.73882 -2.66675 -24.7681
ltibia 16.085
lfoot -15.4724 1.07036
ltoes -10.7121
178
root 9.38027 17.7322 5.19377 284.608 -87.8289 -277.096
lowerback -1.02946 -1.40019 -3.846
upperback -2.09475 -1.90358 5.34671
thorax -1.28348 -0.899645 7.75125
lowerneck -12.915 2.60557 0.806825
upperneck 11.2314 2.56397 5.32968
head 5.44884 1.65483 1.75628
rclavicle -6.36111e-015 4.45278e-014
rhumerus -27.0547 -5.83278 -63.8691
rradius 42.2091
rwrist 4.2034
rhand -11.9172 -25.8568
rfingers 7.12502
rthumb 14.1368 -55.3559
lclavicle -6.36111e-015 4.45278e-014
lhumerus 23.017 24.4262 14.1177
lradius 45.418
lwrist -23.1945
lhand -28.6844 18.0346
lfingers 7.12502
lthumb -2.0469 48.0045
rfemur -32.1927 0.4194 11.4825
rtibia 10.3822
rfoot -7.38376 -19.1231
rtoes -3.60954
lfemur 1.90224 -2.78077 -24.7932
ltibia 16.4157
lfoot -15.5982 1.0001
ltoes -11.5453
179
root 9.23697 17.7205 5.17905 285.503 -87.7565 -277.885
lowerback -0.959143 -1.35721 -3.86932
upperback -2.08893 -1.84717 5.36865
thorax -1.32492 -0.869596 7.79105
lowerneck -12.8042 2.60725 0.742171
upperneck 11.0436 2.57815 5.41296
head 5.36906 1.66047 1.7891
rclavicle 9.0447e-015 2.70347e-014
rhumerus -27.5615 -6.3939 -63.353
rradius 41.6891
rwrist 4.12191
rhand -11.8947 -26.0333
rfingers 7.12502
rthumb 14.1585 -55.5309
lclavicle 9.0447e-015 2.70347e-014
lhumerus 23.5385 25.9023 14.016
lradius 44.9153
lwrist -23.6065
lhand -28.8514 17.9982
lfingers 7.12502
lthumb -2.20819 47.9666
rfemur -32.6483 -0.0937727 11.7815
rtibia 11.4092
rfoot -7.1882 -18.4366
rtoes -3.53181
lfemur 2.09791 -2.91885 -24.8368
ltibia 16.773
lfoot -15.7019 0.944193
ltoes -12.4405
180
root 9.09075 17.7101 5.16383 286.529 -87.6691 -278.846
lowerback -0.872766 -1.31897 -3.89987
upperback -2.06584 -1.79737 5.38864
thorax -1.35635 -0.843397 7.8329
lowerneck -12.7073 2.59909 0.663094
upperneck 10.8883 2.58064 5.49194
head 5.30197 1.66015 1.82266
rclavicle -2.99171e-014 8.26944e-014
rhumerus -28.0559 -6.94212 -62.8291
rradius 41.1595
rwrist 4.07083
rhand -11.8369 -26.1271
rfingers 7.12502
rthumb 14.2142 -55.6207
lclavicle -2.99171e-014 8.26944e-014
lhumerus 23.9823 27.2718 13.906
lradius 44.5081
lwrist -24.0502
lhand -29.0063 17.9236
lfingers 7.12502
lthumb -2.35776 47.8903
rfemur -33.0189 -0.564927 12.0703
rtibia 12.5676
rfoot -6.89914 -17.7474
rtoes -3.23216
lfemur 2.33722 -3.07485 -24.9013
ltibia 17.1503
lfoot -15.7788 0.882447
ltoes -13.3714
181
root 8.94128 17.701 5.14755 288.045 -87.5646 -280.331
lowerback -0.780682 -1.2911 -3.94371
upperback -2.03596 -1.7616 5.41001
thorax -1.38133 -0.824397 7.88383
lowerneck -12.6043 2.58121 0.575205
upperneck 10.7661 2.57132 5.56314
head 5.24453 1.65359 1.85464
rclavicle 5.56597e-015 -8.42847e-014
rhumerus -28.5471 -7.47448 -62.2942
rradius 40.6181
rwrist 4.04869
rhand -11.7483 -26.1435
rfingers 7.12502
rthumb 14.2995 -55.6311
lclavicle 5.56597e-015 -8.42847e-014
lhumerus 24.3371 28.5147 13.7815
lradius 44.2026
lwrist -24.5106
lhand -29.1414 17.8009
lfingers 7.12502
lthumb -2.48824 47.7661
rfemur -33.2734 -0.913858 12.2956
rtibia 13.7387
rfoot -6.6002 -17.1144
rtoes -2.78165
lfemur 2.60734 -3.24689 -24.9774
ltibia 17.5499
lfoot -15.8165 0.805079
ltoes -14.3378
182
root 8.789 17.6933 5.12977 290.422 -87.4472 -282.699
lowerback -0.698659 -1.28289 -3.99627
upperback -1.99142 -1.75247 5.44236
thorax -1.38055 -0.819957 7.9509
lowerneck -12.5253 2.55808 0.47535
upperneck 10.6822 2.55677 5.62071
head 5.20324 1.64405 1.88491
rclavicle 5.36719e-015 -7.95139e-015
rhumerus -29.0011 -7.99143 -61.7531
rradius 40.0523
rwrist 4.04914
rhand -11.6535 -26.108
rfingers 7.12502
rthumb 14.3909 -55.5891
lclavicle 5.36719e-015 -7.95139e-015
lhumerus 24.5943 29.6575 13.6421
lradius 43.9961
lwrist -24.9908
lhand -29.2689 17.6457
lfingers 7.12502
lthumb -2.61141 47.6095
rfemur -33.4001 -1.10573 12.4318
rtibia 14.8125
rfoot -6.2073 -16.5909
rtoes -2.2838
lfemur 2.89236 -3.43813 -25.0447
ltibia 17.9715
lfoot -15.8064 0.69876
ltoes -15.326
